<?xml version="1.0" encoding="UTF-8"?>
<svg xmlns="http://www.w3.org/2000/svg" viewBox="0 0 1095 1095" width="1095" height="1095">
<path d="M514 0.17C536.39 0.17 558.77 0.17 581.16 0.17C584.82 1.87 597.57 1.29 602.5 1.84C619.91 3.79 637.16 7.05 654.5 9.87C661.65 11.04 668.61 13.08 675.65 14.7C712.44 23.16 747.69 36.87 781.94 52.54C810.92 65.8 838.17 83.01 864.12 101.39C872.87 107.59 881.04 114.58 889.62 120.88C895.68 125.32 900.82 131.12 906.58 135.92C923.31 149.87 939.99 165.79 953.86 182.65C955.35 184.47 957.36 185.86 958.86 187.68C966.64 197.12 975.09 206.33 982.23 216.25C1015.02 261.73 1043.06 308.11 1062.37 361.14C1074.27 393.82 1082.58 427.51 1088.89 461.56C1091.34 474.73 1092.19 488.32 1094 501.52C1094.55 505.57 1093.15 510.14 1094.83 513.88C1094.83 536.56 1094.83 559.24 1094.83 581.92C1093.13 585.66 1093.78 598.35 1093.17 603.5C1091.72 615.81 1090.13 628.32 1087.9 640.46C1079.83 684.3 1067.68 728.53 1048.7 769.23C1038.61 790.88 1027.84 812.39 1015.14 832.63C951.25 934.44 847.96 1021.8 733.83 1062.36C700.92 1074.06 667.51 1082.45 633.38 1088.83C620.17 1091.3 606.64 1091.79 593.45 1093.88C589.41 1094.52 584.78 1093.12 581.09 1094.83C558.76 1094.83 536.43 1094.83 514.09 1094.83C510.03 1092.93 498.72 1093.75 493.5 1093.12C482.89 1091.84 472.12 1090.8 461.54 1088.78C428.76 1082.51 396.53 1074.73 364.88 1063.55C316.98 1046.63 272.05 1021.23 231.23 991.29C150.96 932.43 91.6 863.79 49.17 773.34C29.48 731.35 16.15 686.69 7.43 641.24C5.03 628.73 3.83 616.03 2 603.48C1.18 597.84 2.28 585.51 0.17 581.1C0.17 558.44 0.17 535.79 0.17 513.13C1.85 509.59 1.45 497.38 2.05 492.51C3.32 482.22 4.31 471.72 6.13 461.53C12.1 428.06 20.75 394.88 32.35 362.76C81.09 227.75 189.86 110.87 319.53 50.03C359.24 31.4 402.14 16.15 445.51 9.03C461.13 6.46 476.82 3.92 492.5 1.94C497.46 1.32 510.49 1.88 514 0.17ZM533.78 131.43C524.62 132.66 516 135.88 508.05 140.55C458.63 169.61 470.21 245.82 525.08 260.47C532.65 262.5 540.63 263.58 548.47 262.73C558.3 261.66 567.73 258.81 576.25 253.73C593.45 243.49 606.12 225.47 608.78 205.46C613.08 173.14 591.4 140.63 559.5 132.98C551.03 130.95 542.45 130.26 533.78 131.43ZM394.23 371.02C389.1 380.32 387.71 393.08 386.87 403.5C386.09 413.16 386.29 422.85 388.21 432.4C398.54 483.87 443.5 502.5 488.49 515.98C498.99 519.12 509.71 521.61 520.34 524.29C525.41 525.56 531.72 528.35 536.94 527.24C538.42 529.73 543.55 530.15 546.48 531.02C554.06 533.29 561.62 535.69 569 538.52C579.95 542.72 591.46 548.31 600.11 556.4C605.27 561.23 608.84 567.93 613.5 572.22C632.57 553.98 651.63 535.74 670.7 517.5C668.94 511.21 663.22 505.41 658.93 500.56C646.55 486.59 630.43 476.53 613.51 468.98C606.93 466.05 599.15 461.83 591.93 461.23C584.26 456.54 568.92 453.59 559.92 451.52C550.33 449.31 540.9 446.44 531.3 444.31C515.39 440.77 498.56 437.29 484.16 429.36C460.29 416.21 463.92 388.15 483.19 372.69C488.14 368.72 493.94 365.57 499.92 363.47C502.97 362.4 506.33 361.69 509.12 360.23C534.08 358.28 555.96 358.89 580.34 365.28C593.68 368.77 604.85 374.82 617.5 379.06C636.93 360.21 656.36 341.35 675.79 322.5C664.23 311.73 647.11 303.23 632.85 296.59C575.47 269.88 502.66 267.61 448.3 302.79C430.29 314.45 415.09 330.25 404.32 348.81C400.39 355.58 395.67 363.24 394.23 371.02ZM812.74 434.5C805.73 436.15 798.67 440.4 792.35 443.84C775.04 453.25 759.7 465.66 744.29 477.81C698.04 514.3 656.26 556.56 614.58 598.06C599.52 613.06 585.85 629.34 571.37 644.85C565.25 651.4 559.05 660.47 549.41 661.67C534.45 663.54 516.47 642.62 506.47 633.02C488.44 615.74 470.54 598.25 452.2 581.3C434.25 564.71 416.2 547.84 390.5 545.84C374.41 544.6 358.78 548.1 344.95 556.43C340.11 559.35 334.35 563.46 331.75 568.5C357.23 583.83 377.18 603.52 398.44 624.05C415.74 640.74 432.58 657.93 449.49 675.01C472.29 698.03 496.74 725.38 529.79 732.57C571.3 741.6 599.95 716.68 625.71 688.21C675.55 633.12 716.23 569.17 759.09 508.63C770.39 492.67 781.91 476.79 793.64 461.15C798.27 454.98 810.55 440.77 812.74 434.5ZM286.37 784.5C271.48 763.87 235.65 756.36 212.52 764C191.43 770.97 176.19 786.96 178 810.5C180.3 840.26 207.36 846.64 230.71 854.74C241.34 858.44 258.89 862.59 259.54 876.56C259.95 885.32 253.44 891.67 245.66 894.21C233.05 898.33 217.68 895.94 206.23 889.31C200.61 886.05 196.05 880.81 190.5 877.86C184.59 884.41 178.67 890.95 172.76 897.5C177.76 904.59 186.1 909.83 193.73 913.75C223.44 929 277.42 927.35 288.31 888.72C289.62 884.08 290.39 879.34 290.25 874.5C289.34 844.44 264.05 835.67 239.76 827.64C229.12 824.12 209.6 820.27 208.34 806.39C208.1 803.72 208.87 800.91 209.97 798.5C216.87 783.39 241.79 786.64 253.75 792.74C259.06 795.45 263.3 800.15 268.5 802.67C274.46 796.61 280.42 790.56 286.37 784.5ZM574.67 762.46C551.55 763.57 553.58 798.42 577.5 796.09C598.73 794.02 596.19 761.44 574.67 762.46ZM643.22 764C633.98 764 624.74 764 615.49 764C615.49 815.65 615.49 867.3 615.49 918.95C624.65 918.95 633.8 918.95 642.95 918.95C643.4 912.16 643.23 905.31 643.22 898.5C643.21 895.69 642.45 891.62 643.54 889C644.48 886.75 654.16 878.3 656.5 876.29C666.54 890.51 676.58 904.74 686.62 918.96C697.42 918.96 708.23 918.96 719.03 918.96C704.74 898.47 690.45 877.99 676.16 857.5C689.58 843.17 703.01 828.83 716.44 814.5C709.06 812.65 700.18 813.8 692.5 813.77C689.55 813.76 685.45 812.98 682.7 814.12C679.93 815.27 674.64 822.41 672.37 824.87C667.1 830.59 661.75 836.24 656.49 841.99C652.35 846.52 648.36 852.05 643.22 855.32C643.22 824.88 643.22 794.44 643.22 764ZM415.5 872.45C417.51 865.31 416.26 856.46 414.34 849.29C410.84 836.22 403.5 824.87 391.85 817.62C363.35 799.88 322.16 813.94 311.22 845.67C303.17 869.01 309.23 895.93 329.26 911.23C353.74 929.91 396.41 924.88 412.54 897.5C406.2 893.19 399.85 888.88 393.5 884.57C388.49 890.05 383.65 895.4 376.27 897.67C358.53 903.11 335.56 893.04 335.5 872.45C362.17 872.45 388.83 872.45 415.5 872.45ZM819.96 918.72C821.95 910.57 820.55 900.87 820.52 892.5C820.48 874.92 823.95 843.34 813.73 828.76C796.96 804.88 746.36 807.46 732.58 833.5C737.56 837.38 742.53 841.25 747.5 845.13C752.69 841.13 758.11 836.79 764.66 835.31C778.99 832.08 794.03 836.79 794.49 853.5C787.5 855.61 778.9 854.49 771.5 855.03C749.95 856.61 725.11 866.49 727.12 892.5C729.1 918.23 755.62 926.18 777.25 918.68C784.5 916.17 789.2 911.15 794.99 906.57C794.99 910.62 794.99 914.67 794.99 918.72C803.31 918.72 811.63 918.72 819.96 918.72ZM931.11 918.71C932.9 912.15 931.69 899.75 931.65 892.5C931.58 875 935.08 843.2 924.86 828.68C907.97 804.68 857.29 807.66 843.16 833.5C847.94 837.32 852.72 841.14 857.5 844.96C862.86 842.74 867.01 838.27 872.69 836.25C886.01 831.5 907.77 835.84 904.5 854.14C881.72 855.74 845.91 853.62 838.98 882.5C838.12 886.07 837.75 889.84 838.11 893.5C840.65 919 866.97 925.74 888.15 918.59C895.53 916.1 899.85 910.64 905.89 906.42C905.89 910.52 905.89 914.62 905.89 918.71C914.3 918.71 922.71 918.71 931.11 918.71ZM453.5 813.85C443.61 813.85 433.73 813.85 423.84 813.85C438.73 848.88 453.61 883.91 468.5 918.93C477.83 918.93 487.17 918.93 496.5 918.93C511.4 883.89 526.29 848.85 541.19 813.81C531.63 813.81 522.06 813.81 512.5 813.81C502.5 837.73 492.5 861.65 482.5 885.57C472.83 861.67 463.17 837.76 453.5 813.85ZM561.02 813.71C561.02 848.79 561.02 883.87 561.02 918.96C570.36 918.96 579.71 918.96 589.06 918.96C589.06 883.87 589.06 848.79 589.06 813.71C579.71 813.71 570.36 813.71 561.02 813.71ZM388.97 854.81C371.32 854.81 353.68 854.81 336.03 854.81C339.08 825.22 388.48 824.34 388.97 854.81ZM794.38 872.5C795.09 880.24 794.56 887.54 788.86 893.35C781.32 901.04 761.71 905.77 755.21 894.27C751.49 887.68 754.68 879.91 760.91 876.42C769.97 871.35 784.42 870.74 794.38 872.5ZM905.29 872.5C907.17 887.24 900.62 897.7 885.72 900.4C878.93 901.63 869.92 901.06 866.13 894.34C862.43 887.77 865.59 879.89 871.95 876.47C880.32 871.97 896.14 870.88 905.29 872.5Z" fill="#fcfcfc" fill-rule="evenodd" stroke="#fcfcfc" stroke-width="0.25" stroke-linejoin="round"/>
<path d="M0.25 0.25C171.5 0.22 342.75 0.19 514 0.17C510.49 1.88 497.46 1.32 492.5 1.94C476.82 3.92 461.13 6.46 445.51 9.03C402.14 16.15 359.24 31.4 319.53 50.03C189.86 110.87 81.09 227.75 32.35 362.76C20.75 394.88 12.1 428.06 6.13 461.53C4.31 471.72 3.32 482.22 2.05 492.51C1.45 497.38 1.85 509.59 0.17 513.13C0.19 342.17 0.22 171.21 0.25 0.25ZM581.16 0.17C752.36 0.19 923.55 0.22 1094.75 0.25C1094.78 171.46 1094.81 342.67 1094.83 513.88C1093.15 510.14 1094.55 505.57 1094 501.52C1092.19 488.32 1091.34 474.73 1088.89 461.56C1082.58 427.51 1074.27 393.82 1062.37 361.14C1043.06 308.11 1015.02 261.73 982.23 216.25C975.09 206.33 966.64 197.12 958.86 187.68C957.36 185.86 955.35 184.47 953.86 182.65C939.99 165.79 923.31 149.87 906.58 135.92C900.82 131.12 895.68 125.32 889.62 120.88C881.04 114.58 872.87 107.59 864.12 101.39C838.17 83.01 810.92 65.8 781.94 52.54C747.69 36.87 712.44 23.16 675.65 14.7C668.61 13.08 661.65 11.04 654.5 9.87C637.16 7.05 619.91 3.79 602.5 1.84C597.57 1.29 584.82 1.87 581.16 0.17ZM0.17 581.1C2.28 585.51 1.18 597.84 2 603.48C3.83 616.03 5.03 628.73 7.43 641.24C16.15 686.69 29.48 731.35 49.17 773.34C91.6 863.79 150.96 932.43 231.23 991.29C272.05 1021.23 316.98 1046.63 364.88 1063.55C396.53 1074.73 428.76 1082.51 461.54 1088.78C472.12 1090.8 482.89 1091.84 493.5 1093.12C498.72 1093.75 510.03 1092.93 514.09 1094.83C342.81 1094.81 171.53 1094.78 0.25 1094.75C0.22 923.53 0.19 752.32 0.17 581.1ZM1094.83 581.92C1094.81 752.86 1094.78 923.81 1094.75 1094.75C923.53 1094.78 752.31 1094.81 581.09 1094.83C584.78 1093.12 589.41 1094.52 593.45 1093.88C606.64 1091.79 620.17 1091.3 633.38 1088.83C667.51 1082.45 700.92 1074.06 733.83 1062.36C847.96 1021.8 951.25 934.44 1015.14 832.63C1027.84 812.39 1038.61 790.88 1048.7 769.23C1067.68 728.53 1079.83 684.3 1087.9 640.46C1090.13 628.32 1091.72 615.81 1093.17 603.5C1093.78 598.35 1093.13 585.66 1094.83 581.92Z" fill="#000000" fill-rule="evenodd" stroke="#000000" stroke-width="0.25" stroke-linejoin="round"/>
<path d="M533.78 131.43C542.45 130.26 551.03 130.95 559.5 132.98C591.4 140.63 613.08 173.14 608.78 205.46C606.12 225.47 593.45 243.49 576.25 253.73C567.73 258.81 558.3 261.66 548.47 262.73C540.63 263.58 532.65 262.5 525.08 260.47C470.21 245.82 458.63 169.61 508.05 140.55C516 135.88 524.62 132.66 533.78 131.43ZM509.12 360.23C500.04 359.05 490.76 360.71 481.69 361.45C463.3 362.96 444.8 364.59 426.53 367.24C416.57 368.69 404.13 371.57 394.23 371.02C395.67 363.24 400.39 355.58 404.32 348.81C415.09 330.25 430.29 314.45 448.3 302.79C502.66 267.61 575.47 269.88 632.85 296.59C647.11 303.23 664.23 311.73 675.79 322.5C656.36 341.35 636.93 360.21 617.5 379.06C604.85 374.82 593.68 368.77 580.34 365.28C555.96 358.89 534.08 358.28 509.12 360.23ZM415.5 872.45C388.83 872.45 362.17 872.45 335.5 872.45C335.56 893.04 358.53 903.11 376.27 897.67C383.65 895.4 388.49 890.05 393.5 884.57C399.85 888.88 406.2 893.19 412.54 897.5C396.41 924.88 353.74 929.91 329.26 911.23C309.23 895.93 303.17 869.01 311.22 845.67C322.16 813.94 363.35 799.88 391.85 817.62C403.5 824.87 410.84 836.22 414.34 849.29C416.26 856.46 417.51 865.31 415.5 872.45ZM819.96 918.72C811.63 918.72 803.31 918.72 794.99 918.72C794.99 914.67 794.99 910.62 794.99 906.57C789.2 911.15 784.5 916.17 777.25 918.68C755.62 926.18 729.1 918.23 727.12 892.5C725.11 866.49 749.95 856.61 771.5 855.03C778.9 854.49 787.5 855.61 794.49 853.5C794.03 836.79 778.99 832.08 764.66 835.31C758.11 836.79 752.69 841.13 747.5 845.13C742.53 841.25 737.56 837.38 732.58 833.5C746.36 807.46 796.96 804.88 813.73 828.76C823.95 843.34 820.48 874.92 820.52 892.5C820.55 900.87 821.95 910.57 819.96 918.72ZM931.11 918.71C922.71 918.71 914.3 918.71 905.89 918.71C905.89 914.62 905.89 910.52 905.89 906.42C899.85 910.64 895.53 916.1 888.15 918.59C866.97 925.74 840.65 919 838.11 893.5C837.75 889.84 838.12 886.07 838.98 882.5C845.91 853.62 881.72 855.74 904.5 854.14C907.77 835.84 886.01 831.5 872.69 836.25C867.01 838.27 862.86 842.74 857.5 844.96C852.72 841.14 847.94 837.32 843.16 833.5C857.29 807.66 907.97 804.68 924.86 828.68C935.08 843.2 931.58 875 931.65 892.5C931.69 899.75 932.9 912.15 931.11 918.71ZM388.97 854.81C388.48 824.34 339.08 825.22 336.03 854.81C353.68 854.81 371.32 854.81 388.97 854.81ZM794.38 872.5C784.42 870.74 769.97 871.35 760.91 876.42C754.68 879.91 751.49 887.68 755.21 894.27C761.71 905.77 781.32 901.04 788.86 893.35C794.56 887.54 795.09 880.24 794.38 872.5ZM905.29 872.5C896.14 870.88 880.32 871.97 871.95 876.47C865.59 879.89 862.43 887.77 866.13 894.34C869.92 901.06 878.93 901.63 885.72 900.4C900.62 897.7 907.17 887.24 905.29 872.5Z" fill="#f12c20" fill-rule="evenodd" stroke="#f12c20" stroke-width="0.25" stroke-linejoin="round"/>
<path d="M812.74 434.5C810.55 440.77 798.27 454.98 793.64 461.15C781.91 476.79 770.39 492.67 759.09 508.63C716.23 569.17 675.55 633.12 625.71 688.21C599.95 716.68 571.3 741.6 529.79 732.57C496.74 725.38 472.29 698.03 449.49 675.01C432.58 657.93 415.74 640.74 398.44 624.05C377.18 603.52 357.23 583.83 331.75 568.5C334.35 563.46 340.11 559.35 344.95 556.43C358.78 548.1 374.41 544.6 390.5 545.84C416.2 547.84 434.25 564.71 452.2 581.3C470.54 598.25 488.44 615.74 506.47 633.02C516.47 642.62 534.45 663.54 549.41 661.67C559.05 660.47 565.25 651.4 571.37 644.85C585.85 629.34 599.52 613.06 614.58 598.06C656.26 556.56 698.04 514.3 744.29 477.81C759.7 465.66 775.04 453.25 792.35 443.84C798.67 440.4 805.73 436.15 812.74 434.5ZM643.22 764C643.22 794.44 643.22 824.88 643.22 855.32C648.36 852.05 652.35 846.52 656.49 841.99C661.75 836.24 667.1 830.59 672.37 824.87C674.64 822.41 679.93 815.27 682.7 814.12C685.45 812.98 689.55 813.76 692.5 813.77C700.18 813.8 709.06 812.65 716.44 814.5C703.01 828.83 689.58 843.17 676.16 857.5C690.45 877.99 704.74 898.47 719.03 918.96C708.23 918.96 697.42 918.96 686.62 918.96C676.58 904.74 666.54 890.51 656.5 876.29C654.16 878.3 644.48 886.75 643.54 889C642.45 891.62 643.21 895.69 643.22 898.5C643.23 905.31 643.4 912.16 642.95 918.95C633.8 918.95 624.65 918.95 615.49 918.95C615.49 867.3 615.49 815.65 615.49 764C624.74 764 633.98 764 643.22 764Z" fill="#08a249" fill-rule="evenodd" stroke="#08a249" stroke-width="0.25" stroke-linejoin="round"/>
<path d="M509.12 360.23C506.33 361.69 502.97 362.4 499.92 363.47C493.94 365.57 488.14 368.72 483.19 372.69C463.92 388.15 460.29 416.21 484.16 429.36C498.56 437.29 515.39 440.77 531.3 444.31C540.9 446.44 550.33 449.31 559.92 451.52C568.92 453.59 584.26 456.54 591.93 461.23C586.22 483.44 574.28 502.4 555.85 516.35C549.95 520.8 543.32 523.68 536.94 527.24C531.72 528.35 525.41 525.56 520.34 524.29C509.71 521.61 498.99 519.12 488.49 515.98C443.5 502.5 398.54 483.87 388.21 432.4C386.29 422.85 386.09 413.16 386.87 403.5C387.71 393.08 389.1 380.32 394.23 371.02C404.13 371.57 416.57 368.69 426.53 367.24C444.8 364.59 463.3 362.96 481.69 361.45C490.76 360.71 500.04 359.05 509.12 360.23ZM286.37 784.5C280.42 790.56 274.46 796.61 268.5 802.67C263.3 800.15 259.06 795.45 253.75 792.74C241.79 786.64 216.87 783.39 209.97 798.5C208.87 800.91 208.1 803.72 208.34 806.39C209.6 820.27 229.12 824.12 239.76 827.64C264.05 835.67 289.34 844.44 290.25 874.5C290.39 879.34 289.62 884.08 288.31 888.72C277.42 927.35 223.44 929 193.73 913.75C186.1 909.83 177.76 904.59 172.76 897.5C178.67 890.95 184.59 884.41 190.5 877.86C196.05 880.81 200.61 886.05 206.23 889.31C217.68 895.94 233.05 898.33 245.66 894.21C253.44 891.67 259.95 885.32 259.54 876.56C258.89 862.59 241.34 858.44 230.71 854.74C207.36 846.64 180.3 840.26 178 810.5C176.19 786.96 191.43 770.97 212.52 764C235.65 756.36 271.48 763.87 286.37 784.5ZM574.67 762.46C596.19 761.44 598.73 794.02 577.5 796.09C553.58 798.42 551.55 763.57 574.67 762.46ZM561.02 813.71C570.36 813.71 579.71 813.71 589.06 813.71C589.06 848.79 589.06 883.87 589.06 918.96C579.71 918.96 570.36 918.96 561.02 918.96C561.02 883.87 561.02 848.79 561.02 813.71Z" fill="#1571f0" fill-rule="evenodd" stroke="#1571f0" stroke-width="0.25" stroke-linejoin="round"/>
<path d="M591.93 461.23C599.15 461.83 606.93 466.05 613.51 468.98C630.43 476.53 646.55 486.59 658.93 500.56C663.22 505.41 668.94 511.21 670.7 517.5C651.63 535.74 632.57 553.98 613.5 572.22C608.84 567.93 605.27 561.23 600.11 556.4C591.46 548.31 579.95 542.72 569 538.52C561.62 535.69 554.06 533.29 546.48 531.02C543.55 530.15 538.42 529.73 536.94 527.24C543.32 523.68 549.95 520.8 555.85 516.35C574.28 502.4 586.22 483.44 591.93 461.23ZM453.5 813.85C463.17 837.76 472.83 861.67 482.5 885.57C492.5 861.65 502.5 837.73 512.5 813.81C522.06 813.81 531.63 813.81 541.19 813.81C526.29 848.85 511.4 883.89 496.5 918.93C487.17 918.93 477.83 918.93 468.5 918.93C453.61 883.91 438.73 848.88 423.84 813.85C433.73 813.85 443.61 813.85 453.5 813.85Z" fill="#fcb909" fill-rule="evenodd" stroke="#fcb909" stroke-width="0.25" stroke-linejoin="round"/>
</svg>